<?xml version="1.0" encoding="UTF-8"?>
<svg xmlns="http://www.w3.org/2000/svg" xmlns:xlink="http://www.w3.org/1999/xlink" width="60px" height="60px" viewBox="0 0 60 60" version="1.1">
<defs>
<clipPath id="clip1">
  <path d="M 16.589844 16 L 43.414062 16 L 43.414062 44 L 16.589844 44 Z M 16.589844 16 "/>
</clipPath>
<clipPath id="clip2">
  <path d="M 26.460938 22.539062 L 33.535156 22.539062 L 33.535156 37.457031 L 26.460938 37.457031 Z M 26.460938 22.539062 "/>
</clipPath>
</defs>
<g id="surface1">
<g clip-path="url(#clip1)" clip-rule="nonzero">
<path style=" stroke:none;fill-rule:nonzero;fill:rgb(65.098039%,9.019608%,7.45098%);fill-opacity:1;" d="M 18.34375 33.957031 L 18.65625 34.347656 L 18.5 33.839844 C 18.460938 33.605469 18.1875 33.878906 18.34375 33.957031 M 18.695312 33.722656 C 18.8125 33.917969 18.929688 34.113281 18.929688 34.308594 C 18.929688 34.582031 19.164062 34.699219 19.359375 34.777344 C 19.085938 34.464844 18.929688 33.605469 18.695312 33.722656 M 33.691406 17.167969 C 34.351562 17.167969 34.976562 17.089844 35.679688 17.246094 C 37.398438 17.675781 38.84375 18.535156 39.820312 19.746094 L 42.550781 24.117188 C 42.667969 25.210938 42.902344 26.421875 42.863281 27.75 C 43.136719 27.75 43.097656 27.359375 43.410156 27.28125 C 43.097656 28.0625 42.941406 29.039062 42.863281 30.171875 C 42.667969 29.546875 42.863281 28.609375 42.902344 28.101562 C 42.628906 28.53125 42.472656 28.21875 42.472656 28.023438 C 42.511719 27.710938 42.355469 27.75 42.238281 27.632812 C 41.8125 27.242188 41.539062 26.8125 41.226562 26.148438 C 41.421875 25.640625 41.460938 24.898438 40.835938 24.507812 C 40.640625 24.390625 40.40625 24.195312 40.289062 23.886719 C 40.132812 23.457031 39.859375 22.949219 39.9375 22.285156 C 39.976562 22.089844 39.351562 22.714844 39 22.441406 C 37.476562 21.386719 35.953125 20.175781 34.121094 19.160156 C 33.144531 19.160156 32.441406 18.808594 32.089844 18.378906 C 31.777344 17.988281 32.011719 17.480469 32.480469 17.441406 C 32.753906 17.441406 33.066406 17.363281 33.300781 17.519531 C 33.339844 17.363281 33.496094 17.167969 33.691406 17.167969 M 29.824219 16.269531 L 29.902344 16.308594 C 30.292969 16.386719 30.488281 16.933594 30.917969 16.738281 C 30.917969 17.011719 30.957031 17.285156 30.878906 17.480469 C 30.761719 17.792969 30.410156 17.792969 30.136719 17.792969 C 27.519531 17.636719 25.996094 18.730469 24.398438 19.667969 C 23.96875 19.941406 23.5 20.136719 23.148438 20.488281 C 21.46875 22.050781 19.632812 23.496094 19.203125 26.382812 L 18.851562 29.585938 C 18.8125 29.9375 18.421875 30.289062 18.5 30.71875 L 18.773438 32.628906 C 18.5 32.355469 18.34375 32.707031 18.421875 32.863281 C 18.460938 32.980469 18.617188 33.371094 18.851562 33.019531 C 19.164062 33.605469 19.476562 34.738281 19.90625 35.246094 C 21.234375 36.808594 22.953125 38.214844 24.359375 39.621094 C 24.710938 39.542969 24.984375 39.542969 25.0625 39.308594 C 25.179688 39.542969 24.945312 39.773438 24.75 39.816406 C 25.375 40.207031 26.074219 40.554688 27.011719 40.632812 C 28.222656 40.710938 29.355469 40.90625 30.410156 41.179688 C 30.957031 41.023438 31.503906 40.945312 32.089844 40.90625 C 32.285156 40.90625 32.402344 40.59375 32.636719 40.515625 L 32.675781 40.125 C 32.910156 40.476562 32.871094 40.007812 32.714844 39.777344 C 32.988281 40.011719 33.066406 40.203125 33.183594 40.359375 C 33.183594 40.242188 33.496094 39.816406 33.496094 40.320312 L 33.574219 39.816406 C 33.691406 39.738281 33.730469 40.242188 33.847656 39.894531 C 33.964844 39.542969 34.195312 39.816406 34.429688 39.699219 C 34.351562 39.855469 34.390625 40.164062 34.664062 39.972656 L 34.976562 39.699219 C 35.171875 40.164062 35.484375 39.972656 35.640625 39.894531 C 37.359375 38.800781 39.078125 37.511719 40.71875 36.222656 L 40.679688 36.730469 L 40.875 36.105469 C 41.070312 36.300781 41.226562 36.144531 41.304688 36.027344 C 41.539062 35.636719 41.851562 35.246094 42.355469 34.894531 C 41.734375 36.574219 40.992188 37.902344 40.054688 38.996094 L 39.664062 39.464844 C 39.664062 39.738281 39.585938 40.085938 39.273438 40.125 C 39.117188 40.164062 38.804688 40.046875 38.570312 40.28125 C 38.453125 40.4375 38.84375 40.75 38.53125 40.515625 C 38.257812 40.320312 37.984375 40.515625 37.671875 40.59375 C 37.4375 40.671875 37.828125 40.90625 37.90625 41.0625 C 37.984375 41.21875 38.0625 41.375 38.023438 41.570312 L 37.59375 41.101562 C 37.085938 41.375 36.773438 41.882812 36.34375 42.273438 C 36.148438 42.429688 36.226562 42.703125 36.226562 42.9375 C 35.953125 42.9375 35.640625 42.859375 35.484375 43.015625 C 35.367188 43.171875 35.40625 43.40625 35.40625 43.640625 C 35.015625 43.601562 34.976562 43.015625 34.625 43.132812 C 34.273438 43.210938 33.886719 43.25 33.574219 43.445312 C 33.808594 43.914062 33.183594 43.640625 33.261719 43.71875 C 32.675781 43.367188 32.167969 43.09375 31.542969 43.328125 C 30.214844 42.898438 28.574219 43.09375 27.363281 43.25 C 27.363281 43.054688 27.402344 42.859375 27.324219 42.820312 C 27.246094 43.015625 27.011719 42.9375 27.050781 42.9375 C 26.308594 42.429688 25.570312 42.117188 24.789062 41.6875 C 24.085938 41.765625 23.421875 41.414062 23.226562 41.21875 C 22.679688 40.710938 22.054688 40.984375 21.546875 40.867188 C 20.453125 40.59375 20.0625 39.464844 19.945312 38.683594 C 19.867188 38.292969 19.554688 38.136719 19.4375 38.175781 C 18.929688 36.535156 18.148438 35.050781 17.527344 33.527344 C 17.371094 33.136719 17.410156 32.746094 17.410156 32.316406 C 17.605469 32.394531 17.800781 32.355469 17.761719 32.085938 C 17.566406 30.796875 17.097656 29.820312 16.589844 28.882812 C 16.863281 27.554688 16.902344 25.992188 17.527344 24.820312 C 18.070312 23.769531 19.085938 23.222656 19.789062 22.324219 C 20.023438 22.011719 20.023438 21.582031 20.257812 21.308594 C 21.039062 20.527344 21.820312 19.707031 22.679688 19.003906 C 23.070312 18.691406 23.539062 19.003906 24.125 18.886719 C 24.320312 18.183594 25.101562 17.558594 25.84375 17.753906 C 26.152344 17.832031 26.777344 17.011719 26.972656 16.933594 C 27.285156 16.816406 27.128906 17.246094 27.128906 17.519531 C 27.871094 16.933594 28.886719 16.621094 29.824219 16.269531 "/>
</g>
<g clip-path="url(#clip2)" clip-rule="nonzero">
<path style=" stroke:none;fill-rule:nonzero;fill:rgb(65.098039%,9.019608%,7.45098%);fill-opacity:1;" d="M 26.460938 37.460938 L 26.460938 22.539062 L 30.042969 22.539062 C 31.207031 22.539062 32.082031 22.851562 32.664062 23.476562 C 33.246094 24.101562 33.539062 25.019531 33.539062 26.226562 L 33.539062 33.773438 C 33.539062 34.980469 33.246094 35.898438 32.664062 36.523438 C 32.082031 37.148438 31.207031 37.460938 30.042969 37.460938 Z M 28.804688 35.328125 L 30 35.328125 C 30.382812 35.328125 30.679688 35.214844 30.886719 34.988281 C 31.089844 34.761719 31.195312 34.390625 31.195312 33.878906 L 31.195312 26.121094 C 31.195312 25.609375 31.089844 25.238281 30.886719 25.011719 C 30.679688 24.785156 30.382812 24.671875 30 24.671875 L 28.804688 24.671875 Z M 28.804688 35.328125 "/>
</g>
</g>
</svg>
