<svg xmlns="http://www.w3.org/2000/svg" version="1.1" xmlns:xlink="http://www.w3.org/1999/xlink" xmlns:svgjs="http://svgjs.dev/svgjs" width="1500" height="1687" viewBox="0 0 1500 1687"><g transform="matrix(1,0,0,1,2.2737367544323206e-13,0)"><svg viewBox="0 0 320 360" data-background-color="#ffffff" preserveAspectRatio="xMidYMid meet" height="1687" width="1500" xmlns="http://www.w3.org/2000/svg" xmlns:xlink="http://www.w3.org/1999/xlink"><g id="tight-bounds" transform="matrix(1,0,0,1,0,0)"><svg viewBox="0 0 320 360" height="360" width="320"><g><svg></svg></g><g><svg viewBox="0 0 320 360" height="360" width="320"><g><path d="M20.961 227.22l3.726 4.658-1.863-6.056c-0.466-2.795-3.726 0.466-1.863 1.398M25.153 224.425c1.397 2.329 2.795 4.658 2.795 6.987 0 3.261 2.795 4.658 5.123 5.589-3.261-3.726-5.124-13.974-7.918-12.576M204.017 26.929c7.918 0 15.371-0.932 23.756 0.931 20.495 5.124 37.729 15.371 49.374 29.811l32.606 52.169c1.397 13.042 4.192 27.482 3.726 43.319 3.261 0 2.795-4.658 6.521-5.59-3.726 9.316-5.59 20.961-6.521 34.469-2.329-7.453 0-18.632 0.466-24.687-3.261 5.124-5.124 1.397-5.124-0.932 0.466-3.726-1.397-3.261-2.795-4.658-5.124-4.658-8.384-9.782-12.11-17.7 2.329-6.055 2.795-14.905-4.658-19.563-2.329-1.397-5.124-3.726-6.521-7.453-1.863-5.124-5.124-11.179-4.193-19.097 0.466-2.329-6.987 5.124-11.179 1.863-18.166-12.576-36.332-27.016-58.224-39.127-11.645 0-20.029-4.192-24.221-9.316-3.726-4.658-0.932-10.713 4.658-11.179 3.261 0 6.987-0.932 9.782 0.932 0.466-1.863 2.329-4.192 4.657-4.192M157.904 16.215l0.932 0.466c4.658 0.932 6.987 7.453 12.11 5.124 0 3.261 0.466 6.521-0.466 8.85-1.397 3.726-5.59 3.726-8.85 3.726-31.208-1.863-49.374 11.179-68.471 22.358-5.124 3.261-10.713 5.59-14.906 9.782-20.029 18.632-41.921 35.866-47.045 70.335l-4.192 38.195c-0.466 4.192-5.124 8.384-4.192 13.508l3.26 22.824c-3.261-3.261-5.124 0.932-4.192 2.795 0.466 1.397 2.329 6.055 5.124 1.863 3.726 6.987 7.453 20.495 12.576 26.55 15.837 18.632 36.332 35.4 53.101 52.169 4.192-0.932 7.453-0.932 8.384-3.727 1.397 2.795-1.397 5.59-3.726 6.056 7.453 4.658 15.837 8.85 27.016 9.781 14.44 0.932 27.948 3.261 40.524 6.522 6.521-1.863 13.042-2.795 20.029-3.261 2.329 0 3.726-3.726 6.521-4.658l0.466-4.658c2.795 4.192 2.329-1.397 0.466-4.192 3.261 2.795 4.192 5.124 5.589 6.987 0-1.397 3.726-6.521 3.727-0.466l0.931-6.055c1.397-0.932 1.863 5.124 3.261 0.931 1.397-4.192 4.192-0.932 6.987-2.329-0.932 1.863-0.466 5.59 2.794 3.261l3.727-3.261c2.329 5.59 6.055 3.261 7.918 2.329 20.495-13.042 40.99-28.413 60.553-43.784l-0.466 6.055 2.329-7.453c2.329 2.329 4.192 0.466 5.124-0.931 2.795-4.658 6.521-9.316 12.577-13.508-7.453 20.029-16.303 35.866-27.482 48.908l-4.658 5.59c0 3.261-0.932 7.453-4.658 7.918-1.863 0.466-5.59-0.932-8.384 1.863-1.397 1.863 3.261 5.59-0.466 2.795-3.261-2.329-6.521 0-10.248 0.932-2.795 0.932 1.863 3.726 2.795 5.589 0.932 1.863 1.863 3.726 1.398 6.056l-5.124-5.59c-6.055 3.261-9.782 9.316-14.906 13.974-2.329 1.863-1.397 5.124-1.397 7.918-3.261 0-6.987-0.932-8.85 0.932-1.397 1.863-0.932 4.658-0.932 7.453-4.658-0.466-5.124-7.453-9.315-6.056-4.192 0.932-8.85 1.397-12.577 3.727 2.795 5.59-4.658 2.329-3.726 3.26-6.987-4.192-13.042-7.453-20.495-4.658-15.837-5.124-35.4-2.795-49.84-0.931 0-2.329 0.466-4.658-0.466-5.124-0.932 2.329-3.726 1.397-3.26 1.397-8.85-6.055-17.7-9.782-27.016-14.905-8.384 0.932-16.303-3.261-18.632-5.59-6.521-6.055-13.974-2.795-20.029-4.192-13.042-3.261-17.7-16.769-19.098-26.084-0.932-4.658-4.658-6.521-6.055-6.056-6.055-19.563-15.371-37.263-22.824-55.429-1.863-4.658-1.397-9.316-1.397-14.44 2.329 0.932 4.658 0.466 4.192-2.794-2.329-15.371-7.918-27.016-13.974-38.195 3.261-15.837 3.726-34.469 11.179-48.443 6.521-12.576 18.632-19.098 27.016-29.811 2.795-3.726 2.795-8.85 5.59-12.11 9.316-9.316 18.632-19.098 28.879-27.482 4.658-3.726 10.247 0 17.234-1.397 2.329-8.384 11.645-15.837 20.495-13.508 3.726 0.932 11.179-8.85 13.508-9.782 3.726-1.397 1.863 3.726 1.863 6.987 8.85-6.987 20.961-10.713 32.14-14.906" fill="#a61713" fill-rule="nonzero" stroke="none" stroke-width="1" stroke-linecap="butt" stroke-linejoin="miter" stroke-miterlimit="10" stroke-dasharray="" stroke-dashoffset="0" font-family="none" font-weight="none" font-size="none" text-anchor="none" style="mix-blend-mode: normal" data-fill-palette-color="tertiary"></path></g><g transform="matrix(1,0,0,1,64,157.49497655726725)"><svg viewBox="0 0 192 45.010046885465506" height="45.010046885465506" width="192"><g><svg viewBox="0 0 192 45.010046885465506" height="45.010046885465506" width="192"><g><svg viewBox="0 0 192 45.010046885465506" height="45.010046885465506" width="192"><g><svg viewBox="0 0 192 45.010046885465506" height="45.010046885465506" width="192"><g id="textblocktransform"><svg viewBox="0 0 192 45.010046885465506" height="45.010046885465506" width="192" id="textblock"><g><svg viewBox="0 0 192 45.010046885465506" height="45.010046885465506" width="192"><g transform="matrix(1,0,0,1,0,0)"><svg width="192" viewBox="2.05 -35 149.28 35" height="45.010046885465506" data-palette-color="#a61713"><path d="M2.05 0L2.05-35 10.45-35Q14.55-35 16.6-32.8 18.65-30.6 18.65-26.35L18.65-26.35 18.65-8.65Q18.65-4.4 16.6-2.2 14.55 0 10.45 0L10.45 0 2.05 0ZM7.55-5L10.35-5Q11.7-5 12.43-5.8 13.15-6.6 13.15-8.4L13.15-8.4 13.15-26.6Q13.15-28.4 12.43-29.2 11.7-30 10.35-30L10.35-30 7.55-30 7.55-5ZM22.35 0L22.35-35 37.35-35 37.35-30 27.85-30 27.85-20.75 35.4-20.75 35.4-15.75 27.85-15.75 27.85-5 37.35-5 37.35 0 22.35 0ZM40.5 0L40.5-35 48.6-35Q52.7-35 54.75-32.8 56.8-30.6 56.8-26.35L56.8-26.35 56.8-22.9Q56.8-18.65 54.75-16.45 52.7-14.25 48.6-14.25L48.6-14.25 46-14.25 46 0 40.5 0ZM46-19.25L48.6-19.25Q49.95-19.25 50.62-20 51.3-20.75 51.3-22.55L51.3-22.55 51.3-26.7Q51.3-28.5 50.62-29.25 49.95-30 48.6-30L48.6-30 46-30 46-19.25ZM59.79 0L59.79-35 67.94-35Q72.19-35 74.14-33.02 76.09-31.05 76.09-26.95L76.09-26.95 76.09-24.8Q76.09-19.35 72.49-17.9L72.49-17.9 72.49-17.8Q74.49-17.2 75.32-15.35 76.14-13.5 76.14-10.4L76.14-10.4 76.14-4.25Q76.14-2.75 76.24-1.83 76.34-0.9 76.74 0L76.74 0 71.14 0Q70.84-0.85 70.74-1.6 70.64-2.35 70.64-4.3L70.64-4.3 70.64-10.7Q70.64-13.1 69.87-14.05 69.09-15 67.19-15L67.19-15 65.29-15 65.29 0 59.79 0ZM65.29-20L67.29-20Q68.94-20 69.77-20.85 70.59-21.7 70.59-23.7L70.59-23.7 70.59-26.4Q70.59-28.3 69.92-29.15 69.24-30 67.79-30L67.79-30 65.29-30 65.29-20ZM79.94 0L79.94-35 94.94-35 94.94-30 85.44-30 85.44-20.75 92.99-20.75 92.99-15.75 85.44-15.75 85.44-5 94.94-5 94.94 0 79.94 0ZM98.09 0L98.09-35 113.09-35 113.09-30 103.59-30 103.59-20.75 111.14-20.75 111.14-15.75 103.59-15.75 103.59-5 113.09-5 113.09 0 98.09 0ZM120.54 0L120.54-30 114.79-30 114.79-35 131.79-35 131.79-30 126.04-30 126.04 0 120.54 0ZM134.43 0L134.43-35 139.93-35 139.93-20.75 145.83-20.75 145.83-35 151.33-35 151.33 0 145.83 0 145.83-15.75 139.93-15.75 139.93 0 134.43 0Z" opacity="1" transform="matrix(1,0,0,1,0,0)" fill="#a61713" class="wordmark-text-0" data-fill-palette-color="primary" id="text-0"></path></svg></g></svg></g></svg></g></svg></g><g></g></svg></g></svg></g></svg></g></svg></g><defs></defs></svg><rect width="320" height="360" fill="none" stroke="none" visibility="hidden"></rect></g></svg></g></svg>